<?xml version="1.0" encoding="utf-8"?>
<!-- Generator: Adobe Illustrator 22.0.0, SVG Export Plug-In . SVG Version: 6.00 Build 0)  -->
<svg version="1.1" id="Layer_1" focusable="false" xmlns="http://www.w3.org/2000/svg" xmlns:xlink="http://www.w3.org/1999/xlink"
	 x="0px" y="0px" viewBox="0 0 448 451" style="enable-background:new 0 0 448 451;" xml:space="preserve">
<path d="M224,225c70.7,0,128-50.1,128-112S294.7,1,224,1S96,51.1,96,113S153.3,225,224,225z M319.8,253.5L272,421l-32-119l32-49h-96
	l32,49l-32,119l-47.8-167.5C56.9,256.5,0,307.5,0,370.6V407c0,23.2,21.5,42,48,42h352c26.5,0,48-18.8,48-42v-36.4
	C448,307.5,391.1,256.5,319.8,253.5L319.8,253.5z"/>
</svg>
